<svg version="1.1" xmlns="http://www.w3.org/2000/svg" width="18.3691" height="17.9395">
    <g>
        <rect height="17.9395" opacity="0" width="18.3691" x="0" y="0"/>
        <path d="M1.14258 1.17188C0.185547 2.12891 0 3.45703 0 5.03906L0 5.13672L1.57227 5.13672L1.57227 4.98047C1.57227 3.95508 1.69922 2.90039 2.28516 2.31445C2.88086 1.71875 3.94531 1.5918 4.9707 1.5918L5.14648 1.5918L5.14648 0.0195312L5.0293 0.0195312C3.44727 0.0195312 2.10938 0.205078 1.14258 1.17188ZM6.48438 1.5918L11.5234 1.5918L11.5234 0.0195312L6.48438 0.0195312ZM16.8652 1.17188C15.8984 0.205078 14.5605 0.0195312 12.9492 0.0195312L12.8516 0.0195312L12.8516 1.5918L13.0664 1.5918C14.0723 1.5918 15.127 1.72852 15.7129 2.31445C16.3086 2.91016 16.4355 3.94531 16.4355 4.95117L16.4355 5.13672L18.0078 5.13672L18.0078 5.06836C18.0078 3.44727 17.8223 2.11914 16.8652 1.17188ZM16.4355 11.4844L18.0078 11.4844L18.0078 6.47461L16.4355 6.47461ZM16.8652 16.7871C17.8223 15.8301 18.0078 14.5117 18.0078 12.8906L18.0078 12.8223L16.4355 12.8223L16.4355 12.998C16.4355 14.0137 16.3086 15.0488 15.7129 15.6445C15.127 16.2305 14.0723 16.3672 13.0664 16.3672L12.8516 16.3672L12.8516 17.9395L12.9492 17.9395C14.5605 17.9395 15.8984 17.7539 16.8652 16.7871ZM6.48438 17.9395L11.5234 17.9395L11.5234 16.3672L6.48438 16.3672ZM1.14258 16.7871C2.10938 17.7539 3.44727 17.9395 5.04883 17.9395L5.14648 17.9395L5.14648 16.3672L4.94141 16.3672C3.93555 16.3672 2.88086 16.2305 2.28516 15.6445C1.69922 15.0488 1.57227 14.0137 1.57227 12.998L1.57227 12.8223L0 12.8223L0 12.8906C0 14.5117 0.185547 15.8301 1.14258 16.7871ZM0 11.4844L1.57227 11.4844L1.57227 6.47461L0 6.47461Z" fill="#ccc" fill-opacity="0.85"/>
    </g>
</svg>
