<svg width="48" height="48" viewBox="0 0 48 48" fill="none" xmlns="http://www.w3.org/2000/svg">
<path d="M12 16L12 32H28V16H12Z" fill="white"/>
<path d="M3 17V31L8 32L13 31V17L8 16L3 17Z" fill="#1E88E5"/>
<path d="M37 24V38C37 39.657 35.657 41 34 41H13L12 36L13 31H27V24L32 23L37 24Z" fill="#4CAF50"/>
<path d="M37 10V24H27V17H13L12 12L13 7H34C35.657 7 37 8.343 37 10Z" fill="#FBC02D"/>
<path d="M13 31V41H6C4.343 41 3 39.657 3 38V31H13Z" fill="#1565C0"/>
<path d="M13 7V17H3L13 7Z" fill="#E53935"/>
<path d="M38 24L37 32.45L27 24L37 15.55L38 24Z" fill="#2E7D32"/>
<path d="M46 10.11V37.89C46 38.73 45.02 39.2 44.37 38.67L37 32.45V15.55L44.37 9.33001C45.02 8.80001 46 9.27001 46 10.11Z" fill="#4CAF50"/>
</svg>
