<svg width="48" height="48" viewBox="0 0 48 48" fill="none" xmlns="http://www.w3.org/2000/svg">
<g clip-path="url(#clip0_11_72)">
<path d="M32 33.3333C32 35.5423 30.2091 37.3333 28 37.3333H10.6666C6.24833 37.3333 2.66663 33.7516 2.66663 29.3333V14.6667C2.66663 12.4577 4.45748 10.6667 6.66663 10.6667H24C28.4183 10.6667 32 14.2484 32 18.6667V33.3333ZM42.1333 13.0664L36.2666 17.4664C35.2593 18.2219 34.6666 19.4074 34.6666 20.6665L34.6667 27.3332C34.6667 28.5921 35.2595 29.7777 36.2667 30.5331L42.1333 34.9331C43.4518 35.9219 45.3333 34.9812 45.3333 33.3331V14.6664C45.3333 13.0184 43.4518 12.0776 42.1333 13.0664Z" fill="#0B5CFF"/>
</g>
<defs>
<clipPath id="clip0_11_72">
<rect width="48" height="48" fill="white"/>
</clipPath>
</defs>
</svg>
